<?xml version="1.0" encoding="utf-8"?>
<!-- Generator: Adobe Illustrator 19.2.1, SVG Export Plug-In . SVG Version: 6.00 Build 0)  -->
<svg version="1.1" id="Layer_1" xmlns="http://www.w3.org/2000/svg" xmlns:xlink="http://www.w3.org/1999/xlink" x="0px" y="0px"
	 viewBox="0 0 90 47.6" style="enable-background:new 0 0 90 47.6;" xml:space="preserve">
<style type="text/css">
	.st0{fill:#FFFFFF;}
</style>
<g>
	<path class="st0" d="M4.8,47.1c0.2,0.1,0.4,0.2,0.6,0.2c0,0,0,0,0,0c0.2,0.1,0.5,0.1,0.7,0.2c0,0,0.1,0,0.1,0
		c0.2,0,0.4,0.1,0.6,0.1c0.2,0,0.5,0,0.7,0h74.9c4.2,0,7.6-3.4,7.6-7.6V7.6c0-0.2,0-0.5,0-0.7c0-0.2,0-0.3-0.1-0.5
		c0-0.1,0-0.1,0-0.2c0-0.2-0.1-0.4-0.1-0.6c0,0,0,0,0-0.1c-0.1-0.2-0.1-0.4-0.2-0.6c0,0,0,0,0,0l0,0C88.4,2.1,85.7,0,82.4,0H7.6
		C3.4,0,0,3.4,0,7.6v32.5C0,43.2,2,46,4.8,47.1L4.8,47.1C4.7,47.1,4.7,47.1,4.8,47.1z M3.3,7.6c0-2.4,1.9-4.3,4.3-4.3h74.9
		c1.1,0,2.1,0.4,2.8,1.1c0.1,0.1,0.2,0.2,0.3,0.3c0,0,0,0,0,0c0.1,0.1,0.2,0.2,0.3,0.3c0,0,0,0,0,0C86,5.1,86,5.2,86.1,5.4
		c0,0,0,0,0,0.1c0.1,0.1,0.1,0.2,0.2,0.3c0,0,0,0.1,0,0.1c0,0.1,0.1,0.2,0.1,0.3c0,0,0,0.1,0,0.1c0,0.1,0.1,0.2,0.1,0.3
		c0,0,0,0.1,0,0.1c0,0.1,0,0.2,0.1,0.3c0,0,0,0.1,0,0.1c0,0.1,0,0.3,0,0.5v32.5c0,2.4-1.9,4.3-4.3,4.3H7.6c-0.2,0-0.3,0-0.5,0
		c-0.1,0-0.1,0-0.1,0c-0.1,0-0.2,0-0.3-0.1c-0.1,0-0.1,0-0.2,0c-0.1,0-0.2,0-0.3-0.1c-0.1,0-0.1,0-0.2-0.1C6,44,5.9,44,5.8,44
		c-0.1,0-0.1-0.1-0.2-0.1c-0.1,0-0.2-0.1-0.2-0.1c-0.1,0-0.1-0.1-0.1-0.1c-0.1-0.1-0.2-0.1-0.2-0.2c0,0-0.1-0.1-0.1-0.1
		c-0.1-0.1-0.2-0.1-0.2-0.2c0,0-0.1-0.1-0.1-0.1c-0.1-0.1-0.2-0.2-0.3-0.3c-0.6-0.7-1-1.7-1-2.7L3.3,7.6L3.3,7.6z"/>
</g>
<path class="st0" d="M45,38.3c-8,0-14.5-6.5-14.5-14.5c0-8,6.5-14.5,14.5-14.5c8,0,14.5,6.5,14.5,14.5C59.5,31.8,53,38.3,45,38.3z
	 M45,12c-6.5,0-11.8,5.3-11.8,11.8c0,6.5,5.3,11.8,11.8,11.8c6.5,0,11.8-5.3,11.8-11.8C56.8,17.3,51.5,12,45,12z"/>
<path class="st0" d="M78.7,42.3H11.3c-0.5,0-1-0.4-1-1c0-2.2-1.8-4.1-4.1-4.1c-0.5,0-1-0.4-1-1v-25c0-0.5,0.4-1,1-1
	c2.2,0,4.1-1.8,4.1-4.1c0-0.5,0.4-1,1-1h67.5c0.5,0,1,0.4,1,1c0,2.2,1.8,4.1,4.1,4.1c0.5,0,1,0.4,1,1v25c0,0.5-0.4,1-1,1
	c-2.2,0-4.1,1.8-4.1,4.1C79.7,41.9,79.3,42.3,78.7,42.3z M12.2,40.4h65.7c0.4-2.5,2.4-4.5,5-5V12.2c-2.5-0.4-4.5-2.4-5-5H12.2
	c-0.4,2.5-2.4,4.5-5,5v23.2C9.7,35.8,11.7,37.8,12.2,40.4z"/>
<g>
	<path class="st0" d="M45.2,16.4c0.5,0,0.9,0.4,0.9,0.9v0.2c0.9,0.1,1.7,0.4,2.5,0.8c0.3,0.2,0.6,0.5,0.6,1c0,0.6-0.5,1.1-1.2,1.1
		c-0.2,0-0.4-0.1-0.6-0.2c-0.5-0.3-1-0.5-1.4-0.6v2.6c2.6,0.7,3.7,1.8,3.7,3.7c0,1.9-1.5,3.1-3.6,3.4v0.9c0,0.5-0.4,0.9-0.9,0.9
		c-0.5,0-0.9-0.4-0.9-0.9v-0.9c-1.2-0.2-2.3-0.6-3.3-1.2c-0.4-0.2-0.6-0.6-0.6-1c0-0.7,0.5-1.2,1.2-1.2c0.2,0,0.5,0.1,0.7,0.2
		c0.7,0.5,1.4,0.8,2.2,1v-2.7c-2.4-0.7-3.7-1.6-3.7-3.6c0-1.9,1.4-3.1,3.6-3.3v-0.2C44.3,16.8,44.7,16.4,45.2,16.4z M44.4,21.9v-2.3
		c-0.8,0.1-1.2,0.5-1.2,1.1C43.2,21.2,43.4,21.6,44.4,21.9z M46,24.9v2.4c0.8-0.1,1.2-0.5,1.2-1.1C47.2,25.6,46.9,25.2,46,24.9z"/>
</g>
</svg>
