<?xml version="1.0" encoding="utf-8"?>
<!-- Generator: Adobe Illustrator 19.2.1, SVG Export Plug-In . SVG Version: 6.00 Build 0)  -->
<svg version="1.1" id="Layer_1" xmlns="http://www.w3.org/2000/svg" xmlns:xlink="http://www.w3.org/1999/xlink" x="0px" y="0px"
	 viewBox="0 0 75.9 66.4" style="enable-background:new 0 0 75.9 66.4;" xml:space="preserve">
<style type="text/css">
	.st0{fill:#FFFFFF;}
	.st1{enable-background:new    ;}
</style>
<g>
	<g>
		<path class="st0" d="M48.2,66.4c-0.3,0-0.6-0.1-0.8-0.3c-0.4-0.3-0.7-0.7-0.7-1.2L46.4,33c0-0.6,0.4-1.2,1-1.4l26.1-10
			c0.5-0.2,1-0.1,1.4,0.2s0.7,0.7,0.7,1.2l0.3,31.9c0,0.6-0.4,1.2-1,1.4l-26.1,10C48.6,66.4,48.4,66.4,48.2,66.4z M49.4,34l0.3,28.7
			l23.1-8.9l-0.3-28.6L49.4,34z"/>
	</g>
	<g>
		<path class="st0" d="M47.9,34.5c-0.2,0-0.4,0-0.6-0.1L24.6,24.3c-0.6-0.2-0.9-0.8-0.9-1.4s0.4-1.1,1-1.4L50,11.7
			c0.4-0.1,0.8-0.1,1.1,0l23.5,9.9c0.6,0.2,0.9,0.8,0.9,1.4s-0.4,1.2-1,1.4l-26.1,10C48.3,34.5,48.1,34.5,47.9,34.5z M29.1,23
			l18.8,8.4L70,22.9l-19.5-8.2L29.1,23z"/>
	</g>
	<g>
		<path class="st0" d="M47.9,66.4c-0.2,0-0.4,0-0.6-0.1L24.4,56.2c-0.5-0.2-0.9-0.8-0.9-1.4l0.3-31.9c0-0.5,0.3-1,0.7-1.2
			c0.4-0.3,1-0.3,1.4-0.1l22.8,10c0.5,0.2,0.9,0.8,0.9,1.4l-0.3,31.9c0,0.5-0.3,1-0.7,1.2C48.5,66.3,48.2,66.4,47.9,66.4z
			 M26.6,53.9l19.9,8.7L46.7,34l-19.9-8.7L26.6,53.9z"/>
	</g>
	<g>
		<path class="st0" d="M60.3,28.9c-0.2,0-0.4,0-0.6-0.1l-20.3-9.3c-0.8-0.3-1.1-1.2-0.7-2c0.3-0.8,1.2-1.1,2-0.7L61,26.1
			c0.8,0.3,1.1,1.2,0.7,2C61.4,28.6,60.8,28.9,60.3,28.9z"/>
	</g>
	<g>
		<path class="st0" d="M39.5,11.5c-0.2,0-0.4,0-0.6-0.1L20.8,2.9c-0.7-0.4-1.1-1.2-0.7-2c0.4-0.7,1.2-1.1,2-0.7l18.1,8.5
			c0.7,0.4,1.1,1.2,0.7,2C40.6,11.2,40.1,11.5,39.5,11.5z"/>
	</g>
	<g>
		<path class="st0" d="M29.5,14.8c-0.2,0-0.4,0-0.6-0.1L10.8,6.2c-0.7-0.4-1.1-1.2-0.7-2c0.4-0.7,1.2-1.1,2-0.7L30.2,12
			c0.7,0.4,1.1,1.2,0.7,2C30.7,14.5,30.1,14.8,29.5,14.8z"/>
	</g>
	<g>
		<path class="st0" d="M19.6,18.1c-0.2,0-0.4,0-0.6-0.1L0.9,9.5c-0.7-0.4-1.1-1.2-0.7-2c0.4-0.7,1.2-1.1,2-0.7l18.1,8.5
			c0.7,0.4,1.1,1.2,0.7,2C20.7,17.8,20.1,18.1,19.6,18.1z"/>
	</g>
	<g>
		<path class="st0" d="M19.6,28.1c-0.2,0-0.4,0-0.6-0.1L0.9,19.5c-0.7-0.4-1.1-1.2-0.7-2c0.4-0.7,1.2-1.1,2-0.7l18,8.4
			c0.7,0.4,1.1,1.2,0.7,2C20.7,27.8,20.1,28.1,19.6,28.1z"/>
	</g>
	<g>
		<path class="st0" d="M19.6,38.1c-0.2,0-0.4,0-0.6-0.1L0.9,29.4c-0.7-0.4-1.1-1.2-0.7-2c0.4-0.7,1.2-1.1,2-0.7l18,8.5
			c0.7,0.4,1.1,1.2,0.7,2C20.7,37.8,20.1,38.1,19.6,38.1z"/>
	</g>
</g>
</svg>
